<svg viewBox="0 0 50 50" xmlns="http://www.w3.org/2000/svg"><path d="m11 46a7 7 0 0 1 -7-7v-28a7 7 0 0 1 7-7h14v42z" fill="#0037ff"/><path d="m39 46a7 7 0 0 0 7-7v-28a7 7 0 0 0 -7-7h-14v42z" fill="#080736"/><g fill="none" stroke-miterlimit="10" stroke-width="2"><path d="m11 35.28h11.18" stroke="#fff"/><path d="m28 35h11" stroke="#3be081"/><g stroke="#fff"><path d="m11 25h3.25"/><path d="m20 25h5"/><path d="m11 15h14"/></g><path d="m34 15h5" stroke="#3be081"/><path d="m25 15h4" stroke="#3be081"/><path d="m25 32a3 3 0 0 1 0 6" stroke="#0cf"/><path d="m25 38a3 3 0 0 1 0-6" stroke="#fff"/><path d="m18 22a3 3 0 0 1 0 6" stroke="#fff"/><path d="m18 28a3 3 0 0 1 0-6" stroke="#fff"/><path d="m32 12a3 3 0 0 1 0 6" stroke="#0cf"/><path d="m32 18a3 3 0 0 1 0-6" stroke="#0cf"/><path d="m39 25h-14" stroke="#3be081"/></g></svg>