<svg viewBox="0 0 50 50" xmlns="http://www.w3.org/2000/svg"><path d="m11 46a7 7 0 0 1 -7-7v-28a7 7 0 0 1 7-7h14v42z" fill="#0037ff"/><path d="m39 46a7 7 0 0 0 7-7v-28a7 7 0 0 0 -7-7h-14v42z" fill="#080736"/><g fill="none" stroke-miterlimit="10" stroke-width="2"><path d="m30 39v-28" stroke="#3be081"/><path d="m20 39v-28" stroke="#fff"/><path d="m25.03 35h-13.03" stroke="#fff"/><path d="m25 35h8a5 5 0 0 0 5-5 5 5 0 0 0 -5-5h-8" stroke="#fc7f10"/><path d="m25 25h-8a5 5 0 0 1 -5-5 5 5 0 0 1 5-5h8" stroke="#fff"/><path d="m38 15h-13" stroke="#fc7f10"/></g></svg>