<svg enable-background="new 0 0 50 50" viewBox="0 0 50 50" xmlns="http://www.w3.org/2000/svg"><path d="m11 46c-3.9 0-7-3.1-7-7v-28c0-3.9 3.1-7 7-7h14v42z" fill="#861dff"/><path d="m39 46c3.9 0 7-3.1 7-7v-28c0-3.9-3.1-7-7-7h-14v42z" fill="#080736"/><path d="m32 32h-7v-2h7c.6 0 1-.4 1-1v-14c0-.6-.4-1-1-1h-7v-2h7c1.7 0 3 1.3 3 3v14c0 1.7-1.3 3-3 3z" fill="#0cf"/><path d="m25 32h-7c-1.7 0-3-1.3-3-3v-14c0-1.7 1.3-3 3-3h7v2h-7c-.6 0-1 .4-1 1v14c0 .6.4 1 1 1h7z" fill="#fff"/><path d="m25 36h13v2h-13z" fill="#0cf"/><path d="m12 36h13v2h-13z" fill="#fff"/><path d="m25 23.3-3.5-3.5-1.5 1.5 4.9 4.9s.1.1.1.1z" fill="#fff"/><path d="m37.5 14.7-10 10c-.3.3-.8.3-1.1 0l-1.4-1.4v3c.5.4 1.2.7 1.9.7s1.5-.3 2-.8l10-10z" fill="#3be081"/><path d="m39 46.5h-28c-4.1 0-7.5-3.4-7.5-7.5v-28c0-4.1 3.4-7.5 7.5-7.5h28c4.1 0 7.5 3.4 7.5 7.5v28c0 4.1-3.4 7.5-7.5 7.5zm-28-42c-3.6 0-6.5 2.9-6.5 6.5v28c0 3.6 2.9 6.5 6.5 6.5h28c3.6 0 6.5-2.9 6.5-6.5v-28c0-3.6-2.9-6.5-6.5-6.5z" fill="#fff"/></svg>