<svg viewBox="0 0 50 50" xmlns="http://www.w3.org/2000/svg"><path d="m11 46a7 7 0 0 1 -7-7v-28a7 7 0 0 1 7-7h14v42z" fill="#0037ff"/><path d="m39 46a7 7 0 0 0 7-7v-28a7 7 0 0 0 -7-7h-14v42z" fill="#080736"/><g fill="none" stroke-miterlimit="10" stroke-width="2"><path d="m25 38h-10a3 3 0 0 1 -3-3v-20a3 3 0 0 1 3-3h10" stroke="#fff"/><path d="m31 20v18" stroke="#fc7f10"/><path d="m25 20h13" stroke="#fc7f10"/><g stroke="#fff"><path d="m12 20h13"/><path d="m12.04 26h12.96"/><path d="m12.04 32h12.96"/></g><path d="m25 38h10a3 3 0 0 0 3-3v-20a3 3 0 0 0 -3-3h-10" stroke="#0cf"/></g></svg>