<svg viewBox="0 0 50 50" xmlns="http://www.w3.org/2000/svg"><path d="m11 46a7 7 0 0 1 -7-7v-28a7 7 0 0 1 7-7h14v42z" fill="#0037ff"/><path d="m39 46a7 7 0 0 0 7-7v-28a7 7 0 0 0 -7-7h-14v42z" fill="#080736"/><g fill="none" stroke-miterlimit="10" stroke-width="2"><path d="m25 37.01h-14" stroke="#fff"/><path d="m39 37.01h-14" stroke="#3be081"/><path d="m25 12.99h-14" stroke="#fff"/><path d="m39 12.99h-14" stroke="#3be081"/><path d="m16.5 29.5a4.49 4.49 0 0 0 4.5-4.5 4.49 4.49 0 0 0 -4.5-4.5 4.49 4.49 0 0 0 -4.5 4.5 4.49 4.49 0 0 0 4.5 4.5z" stroke="#fff"/><g stroke="#ffce00"><path d="m28 20 10 10"/><path d="m28 30 10-10"/></g></g></svg>